<?xml version="1.0"?>
<svg xmlns="http://www.w3.org/2000/svg" height="512px" viewBox="-34 0 512 512.0005" width="512px"><g><path d="m438.546875 75.855469-214.28125-75.429688c-1.609375-.566406-3.367187-.566406-4.976563 0l-214.28125 75.429688c-3 1.058593-5.007812 3.890625-5.007812 7.074219v207.242187c0 59.242187 23.070312 114.933594 64.957031 156.820313 86.671875 86.671874 226.960938 86.679687 313.640625 0 41.890625-41.886719 64.957032-97.578126 64.957032-156.820313v-207.242187c0-3.183594-2.007813-6.019532-5.007813-7.074219zm-9.988281 214.316406c0 114.019531-92.761719 206.78125-206.78125 206.78125-114.019532 0-206.777344-92.761719-206.777344-206.78125v-201.933594l206.777344-72.789062 206.78125 72.789062zm0 0" data-original="#000000" class="active-path" data-old_color="#000000" fill="#FF8700"/><path d="m219.289062 32.226562-184.28125 64.871094c-3.003906 1.054688-5.011718 3.890625-5.011718 7.074219v42.675781c0 4.140625 3.355468 7.5 7.5 7.5 4.140625 0 7.5-3.359375 7.5-7.5v-37.367187l176.78125-62.230469 176.78125 62.230469v119.550781l-174.289063-61.355469c-1.613281-.566406-3.371093-.566406-4.980469 0l-174.292968 61.355469v-47.1875c0-4.144531-3.355469-7.5-7.5-7.5-4.140625 0-7.496094 3.355469-7.496094 7.5v57.621094c-.003906.101562-.003906.203125 0 .304687v50.402344c0 105.75 86.03125 191.78125 191.78125 191.78125 105.746094 0 191.78125-86.03125 191.78125-191.78125 0-206.441406 0 14.457031 0-186 0-3.183594-2.007812-6.019531-5.011719-7.074219l-184.285156-64.871094c-1.609375-.566406-3.367187-.566406-4.976563 0zm2.488282 434.730469c-97.476563 0-176.78125-79.304687-176.78125-176.785156v-45.242187l176.78125-62.230469 176.78125 62.230469v45.242187c0 97.480469-79.304688 176.785156-176.78125 176.785156zm0 0" data-original="#000000" class="active-path" data-old_color="#000000" fill="#FF8700"/><path d="m373.5625 154.144531v-31.652343c0-3.179688-2.007812-6.015626-5.007812-7.070313l-144.289063-50.792969c-1.609375-.566406-3.367187-.566406-4.976563 0l-144.289062 50.789063c-3 1.058593-5.007812 3.894531-5.007812 7.074219v31.652343c0 5.160157 5.109374 8.789063 9.988281 7.070313l141.796875-49.914063 53.148437 18.710938c3.910157 1.375 8.1875-.679688 9.5625-4.585938s-.675781-8.1875-4.585937-9.5625l-55.636719-19.585937c-1.609375-.566406-3.367187-.566406-4.980469 0l-134.296875 47.277344v-15.753907l136.789063-48.148437 136.785156 48.148437v15.753907l-45.648438-16.070313c-3.90625-1.375-8.1875.675781-9.5625 4.582031s.675782 8.1875 4.585938 9.5625l55.636719 19.585938c4.863281 1.710937 9.988281-1.894532 9.988281-7.070313zm0 0" data-original="#000000" class="active-path" data-old_color="#000000" fill="#FF8700"/><path d="m224.265625 135.273438c-1.609375-.566407-3.367187-.566407-4.976563 0l-79.375 27.941406c-3.90625 1.375-5.957031 5.65625-4.582031 9.5625 1.375 3.910156 5.660157 5.960937 9.5625 4.582031l76.882813-27.0625 76.53125 26.941406c3.90625 1.375 8.1875-.679687 9.5625-4.585937s-.679688-8.1875-4.585938-9.5625zm0 0" data-original="#000000" class="active-path" data-old_color="#000000" fill="#FF8700"/><path d="m221.777344 210.515625c-46.195313 0-87.210938 26.347656-107.152344 66.339844-1.847656 3.707031-.34375 8.210937 3.363281 10.058593 3.707031 1.847657 8.210938.34375 10.058594-3.363281.421875-.847656.855469-1.6875 1.300781-2.523437l41.253906-10.457032 12.585938 11.722657-16.765625 49.925781-22.390625 13.621094-25.808594-31c.636719-4.320313-2.332031-8-6.3125-8.589844-4.082031-.597656-7.90625 2.226562-8.511718 6.324219-10.742188 72.816406 45.914062 137.292969 118.378906 137.292969 65.988281 0 119.675781-53.6875 119.675781-119.675782 0-65.988281-53.6875-119.675781-119.675781-119.675781zm87.050781 147.585937 17.390625-20.890624c-1.171875 17.625-6.726562 34.070312-15.582031 48.253906zm-9.332031-12.230468-22.800782-13.660156-16.214843-49.902344 12.492187-11.730469 41.195313 10.441406c5.539062 10.359375 9.382812 21.757813 11.164062 33.820313zm1.902344-83.5625-25.820313-6.546875-14.152344-22.449219c15.542969 6.382812 29.222657 16.402344 39.972657 28.996094zm-61.640626-35.25 21.433594 34.003906-12.285156 11.535156h-54.121094l-12.40625-11.554687 21.433594-34.007813c11.753906-2.015625 24-2.054687 35.945312.023438zm-57.554687 6.132812-14.226563 22.570313-25.984374 6.585937c10.921874-12.90625 24.714843-22.867187 40.210937-29.15625zm15.019531 54.40625h49.203125l15.1875 46.738282-39.789062 28.90625-40.296875-28.90625zm-64.304687 97.867188c-8.855469-14.183594-14.410157-30.628906-15.582031-48.253906l17.386718 20.890624zm13.863281 17.679687 2.847656-43.15625 22.6875-13.800781 42.03125 30.148438v27.59375l-39.714844 19.707031c-10.398437-5.269531-19.800781-12.21875-27.851562-20.492188zm46.746094 27.847657 28.25-14.035157 28.25 14.035157c-18.402344 5.164062-38.082032 5.167968-56.5 0zm75.394531-7.359376-39.578125-19.695312v-27.621094l41.484375-30.136718 23.097656 13.839843 2.847657 43.125c-8.050782 8.273438-17.453126 15.222657-27.851563 20.488281zm0 0" data-original="#000000" class="active-path" data-old_color="#000000" fill="#FF8700"/></g> </svg>
