<?xml version="1.0"?>
<svg xmlns="http://www.w3.org/2000/svg" xmlns:xlink="http://www.w3.org/1999/xlink" version="1.1" id="Capa_1" x="0px" y="0px" viewBox="0 0 512 512" style="enable-background:new 0 0 512 512;" xml:space="preserve" width="512px" height="512px" class=""><g><g>
	<g>
		<path d="M377.753,503.699L96.387,226.084c-1.339-1.322-3.608-0.372-3.608,1.508l-0.001,12.46c0,0.562,0.223,1.101,0.621,1.499    L358.56,506.706c0.397,0.397,0.936,0.621,1.498,0.621h16.206C378.16,507.327,379.102,505.03,377.753,503.699z" data-original="#FF8700" class="active-path" data-old_color=" rgb(255, 135, 0)" fill="#FF8700"/>
	</g>
</g><g>
	<g>
		<path d="M312.983,503.708L96.39,287.121c-1.335-1.335-3.618-0.389-3.618,1.498l-0.02,184.377    c-0.002,9.361,3.719,18.15,10.462,24.677c6.537,6.33,15.42,9.653,24.52,9.653h183.751    C313.373,507.326,314.319,505.043,312.983,503.708z" data-original="#FF8700" class="active-path" data-old_color=" rgb(255, 135, 0)" fill="#FF8700"/>
	</g>
</g><g>
	<g>
		<path d="M333.078,5.88l-1.589-0.343c-12.838-2.775-26.201,1.237-35.388,10.623l-24.242,24.768    c-5.034,5.142-11.769,8.003-18.964,8.052h-0.191c-7.074,0-13.861-2.798-18.879-7.784l-25.368-25.204    c-9.342-9.282-23.101-13.128-35.901-10.042c-1.345,0.324-2.177,1.672-1.865,3.019c0.674,2.911,1.361,5.866,1.919,8.267    c1.719,7.396,2.17,9.344,2.303,9.989c7.586,36.816,40.423,63.535,78.08,63.535c18.473,0,35.809-6.131,50.132-17.731    c13.926-11.278,23.745-27.051,27.649-44.412c0.315-1.4,2.326-10.772,4.236-19.748C335.301,7.509,334.436,6.174,333.078,5.88z" data-original="#FF8700" class="active-path" data-old_color=" rgb(255, 135, 0)" fill="#FF8700"/>
	</g>
</g><g>
	<g>
		<path d="M315.678,190.583c-6.611,0-11.988,5.377-11.988,11.988c0,6.611,5.377,11.989,11.988,11.989    c6.611,0,11.988-5.378,11.988-11.989C327.666,195.961,322.288,190.583,315.678,190.583z" data-original="#FF8700" class="active-path" data-old_color=" rgb(255, 135, 0)" fill="#FF8700"/>
	</g>
</g><g>
	<g>
		<path d="M481.996,68.761c-19.348-23.977-46.589-40.766-76.704-47.274l-37.857-8.182c-1.364-0.295-2.707,0.574-2.998,1.938    c-2.092,9.817-4.25,19.812-4.287,19.976c-5.383,23.945-18.906,45.682-38.075,61.206c-19.462,15.762-43.995,24.442-69.081,24.442    c-51.874,0-97.113-36.826-107.569-87.564c-0.13-0.602-1.152-4.998-2.141-9.251c-0.719-3.092-1.331-5.728-1.854-7.984    c-0.316-1.365-1.683-2.203-3.045-1.875l-34.447,8.31c-29.579,7.136-56.212,24.251-74.992,48.192    C10.168,94.635-0.111,124.578,0.001,155.006l0.046,12.5c0.076,20.435,10.544,38.979,27.999,49.604    c17.474,10.635,38.776,11.405,56.972,2.058c1.886-0.968,3.099-2.889,3.211-5.007l1.903-36.16L411.41,494.639    c0.89,0.878,2.353,0.805,3.138-0.169c4.898-6.084,7.555-13.594,7.545-21.515l-0.336-256.011l2.519,1.522    c18.098,10.933,39.9,11.253,58.314,0.864C501.006,208.94,512,190.114,512,168.968v-15.247    C512,122.912,501.345,92.739,481.996,68.761z M315.678,244.669c-23.212,0-42.096-18.885-42.096-42.097    s18.884-42.096,42.096-42.096s42.096,18.884,42.096,42.096C357.774,225.784,338.89,244.669,315.678,244.669z" data-original="#FF8700" class="active-path" data-old_color=" rgb(255, 135, 0)" fill="#FF8700"/>
	</g>
</g></g> </svg>
