<?xml version="1.0"?>
<svg xmlns="http://www.w3.org/2000/svg" version="1.1" id="Capa_1" x="0px"
     y="0px" viewBox="0 0 511.999 511.999" style="enable-background:new 0 0 511.999 511.999;" xml:space="preserve"
     width="512px" height="512px" class=""><g><g>
	<g>
		<path d="M256,27.5c-57.895,0-104.997,47.141-104.997,105.084c0,30.009,8.848,64.325,26.3,101.997    c27.151,58.589,65.546,105.036,67.167,106.984c5.988,7.198,17.064,7.208,23.061,0c1.621-1.948,40.015-48.395,67.168-106.986    c17.451-37.67,26.299-71.986,26.299-101.995C360.997,74.641,313.895,27.5,256,27.5z M256,177.612    c-24.812,0-44.999-20.199-44.999-45.028S231.188,87.556,256,87.556s44.999,20.2,44.999,45.028S280.812,177.612,256,177.612z"
              data-original="#FF8700" class="active-path" data-old_color=" rgb(255, 135, 0)" fill="#FF8700"/>
	</g>
</g><g>
	<g>
		<path d="M136.233,213.274H80.895c-6.762,0-12.688,4.524-14.469,11.047L26.787,369.445h204.304    C216.066,359.441,160.761,283.106,136.233,213.274z"
              data-original="#FF8700" class="active-path" data-old_color=" rgb(255, 135, 0)" fill="#FF8700"/>
	</g>
</g><g>
	<g>
		<path d="M375.768,213.274c-24.485,69.708-79.839,146.171-94.859,156.171h29.185l113.363-156.171H375.768z"
              data-original="#FF8700" class="active-path" data-old_color=" rgb(255, 135, 0)" fill="#FF8700"/>
	</g>
</g><g>
	<g>
		<path d="M511.462,465.548L447.47,231.261L263.647,484.5h233.346C506.881,484.5,514.067,475.08,511.462,465.548z"
              data-original="#FF8700" class="active-path" data-old_color=" rgb(255, 135, 0)" fill="#FF8700"/>
	</g>
</g><g>
	<g>
		<path d="M18.593,399.445L0.538,465.548c-2.605,9.536,4.586,18.952,14.469,18.952h211.57l61.741-85.055H18.593z"
              data-original="#FF8700" class="active-path" data-old_color=" rgb(255, 135, 0)" fill="#FF8700"/>
	</g>
</g></g> </svg>
