<?xml version="1.0"?>
<svg xmlns="http://www.w3.org/2000/svg" height="512px" viewBox="0 0 448 448" width="512px">
    <g>
        <path d="m208 144h32v32h-32zm0 0" data-original="#000000" class="active-path" data-old_color="#000000"
              fill="#FF8700"/>
        <path d="m208 304h32v32h-32zm0 0" data-original="#000000" class="active-path" data-old_color="#000000"
              fill="#FF8700"/>
        <path d="m288 304h32v32h-32zm0 0" data-original="#000000" class="active-path" data-old_color="#000000"
              fill="#FF8700"/>
        <path d="m288 384h32v32h-32zm0 0" data-original="#000000" class="active-path" data-old_color="#000000"
              fill="#FF8700"/>
        <path d="m208 384h32v32h-32zm0 0" data-original="#000000" class="active-path" data-old_color="#000000"
              fill="#FF8700"/>
        <path d="m288 224h32v32h-32zm0 0" data-original="#000000" class="active-path" data-old_color="#000000"
              fill="#FF8700"/>
        <path d="m48 304h32v32h-32zm0 0" data-original="#000000" class="active-path" data-old_color="#000000"
              fill="#FF8700"/>
        <path d="m48 144h32v32h-32zm0 0" data-original="#000000" class="active-path" data-old_color="#000000"
              fill="#FF8700"/>
        <path d="m128 144h32v32h-32zm0 0" data-original="#000000" class="active-path" data-old_color="#000000"
              fill="#FF8700"/>
        <path d="m128 384h32v32h-32zm0 0" data-original="#000000" class="active-path" data-old_color="#000000"
              fill="#FF8700"/>
        <path d="m128 224h32v32h-32zm0 0" data-original="#000000" class="active-path" data-old_color="#000000"
              fill="#FF8700"/>
        <path d="m48 224h32v32h-32zm0 0" data-original="#000000" class="active-path" data-old_color="#000000"
              fill="#FF8700"/>
        <path d="m440 32h-24v24c0 13.253906-10.746094 24-24 24h-16c-13.253906 0-24-10.746094-24-24v-24h-256v24c0 13.253906-10.746094 24-24 24h-16c-13.253906 0-24-10.746094-24-24v-24h-24c-4.417969 0-8 3.582031-8 8v56h448v-56c0-4.417969-3.582031-8-8-8zm0 0"
              data-original="#000000" class="active-path" data-old_color="#000000" fill="#FF8700"/>
        <path d="m0 448h352v-80c0-4.417969 3.582031-8 8-8h88v-248h-448zm352-312c0-4.417969 3.582031-8 8-8h48c4.417969 0 8 3.582031 8 8v48c0 4.417969-3.582031 8-8 8h-48c-4.417969 0-8-3.582031-8-8zm0 80c0-4.417969 3.582031-8 8-8h48c4.417969 0 8 3.582031 8 8v48c0 4.417969-3.582031 8-8 8h-48c-4.417969 0-8-3.582031-8-8zm0 80c0-4.417969 3.582031-8 8-8h48c4.417969 0 8 3.582031 8 8v48c0 4.417969-3.582031 8-8 8h-48c-4.417969 0-8-3.582031-8-8zm-258.34375 122.34375-11.3125 11.3125-18.34375-18.34375-18.34375 18.34375-11.3125-11.3125 18.34375-18.34375-18.34375-18.34375 11.3125-11.3125 18.34375 18.34375 18.34375-18.34375 11.3125 11.3125-18.34375 18.34375zm180.6875-276.6875 11.3125-11.3125 18.34375 18.34375 18.34375-18.34375 11.3125 11.3125-18.34375 18.34375 18.34375 18.34375-11.3125 11.3125-18.34375-18.34375-18.34375 18.34375-11.3125-11.3125 18.34375-18.34375zm-2.34375 74.34375c0-4.417969 3.582031-8 8-8h48c4.417969 0 8 3.582031 8 8v48c0 4.417969-3.582031 8-8 8h-48c-4.417969 0-8-3.582031-8-8zm0 80c0-4.417969 3.582031-8 8-8h48c4.417969 0 8 3.582031 8 8v48c0 4.417969-3.582031 8-8 8h-48c-4.417969 0-8-3.582031-8-8zm0 80c0-4.417969 3.582031-8 8-8h48c4.417969 0 8 3.582031 8 8v48c0 4.417969-3.582031 8-8 8h-48c-4.417969 0-8-3.582031-8-8zm-80-240c0-4.417969 3.582031-8 8-8h48c4.417969 0 8 3.582031 8 8v48c0 4.417969-3.582031 8-8 8h-48c-4.417969 0-8-3.582031-8-8zm61.65625 122.34375-11.3125 11.3125-18.34375-18.34375-18.34375 18.34375-11.3125-11.3125 18.34375-18.34375-18.34375-18.34375 11.3125-11.3125 18.34375 18.34375 18.34375-18.34375 11.3125 11.3125-18.34375 18.34375zm-61.65625 37.65625c0-4.417969 3.582031-8 8-8h48c4.417969 0 8 3.582031 8 8v48c0 4.417969-3.582031 8-8 8h-48c-4.417969 0-8-3.582031-8-8zm0 80c0-4.417969 3.582031-8 8-8h48c4.417969 0 8 3.582031 8 8v48c0 4.417969-3.582031 8-8 8h-48c-4.417969 0-8-3.582031-8-8zm-80-240c0-4.417969 3.582031-8 8-8h48c4.417969 0 8 3.582031 8 8v48c0 4.417969-3.582031 8-8 8h-48c-4.417969 0-8-3.582031-8-8zm0 80c0-4.417969 3.582031-8 8-8h48c4.417969 0 8 3.582031 8 8v48c0 4.417969-3.582031 8-8 8h-48c-4.417969 0-8-3.582031-8-8zm61.65625 122.34375-11.3125 11.3125-18.34375-18.34375-18.34375 18.34375-11.3125-11.3125 18.34375-18.34375-18.34375-18.34375 11.3125-11.3125 18.34375 18.34375 18.34375-18.34375 11.3125 11.3125-18.34375 18.34375zm-61.65625 37.65625c0-4.417969 3.582031-8 8-8h48c4.417969 0 8 3.582031 8 8v48c0 4.417969-3.582031 8-8 8h-48c-4.417969 0-8-3.582031-8-8zm-80-240c0-4.417969 3.582031-8 8-8h48c4.417969 0 8 3.582031 8 8v48c0 4.417969-3.582031 8-8 8h-48c-4.417969 0-8-3.582031-8-8zm0 80c0-4.417969 3.582031-8 8-8h48c4.417969 0 8 3.582031 8 8v48c0 4.417969-3.582031 8-8 8h-48c-4.417969 0-8-3.582031-8-8zm0 80c0-4.417969 3.582031-8 8-8h48c4.417969 0 8 3.582031 8 8v48c0 4.417969-3.582031 8-8 8h-48c-4.417969 0-8-3.582031-8-8zm0 0"
              data-original="#000000" class="active-path" data-old_color="#000000" fill="#FF8700"/>
        <path d="m368 304h32v32h-32zm0 0" data-original="#000000" class="active-path" data-old_color="#000000"
              fill="#FF8700"/>
        <path d="m368 224h32v32h-32zm0 0" data-original="#000000" class="active-path" data-old_color="#000000"
              fill="#FF8700"/>
        <path d="m376 64h16c4.417969 0 8-3.582031 8-8v-56h-32v56c0 4.417969 3.582031 8 8 8zm0 0" data-original="#000000"
              class="active-path" data-old_color="#000000" fill="#FF8700"/>
        <path d="m368 437.816406 67.441406-61.816406h-67.441406zm0 0" data-original="#000000" class="active-path"
              data-old_color="#000000" fill="#FF8700"/>
        <path d="m56 64h16c4.417969 0 8-3.582031 8-8v-56h-32v56c0 4.417969 3.582031 8 8 8zm0 0" data-original="#000000"
              class="active-path" data-old_color="#000000" fill="#FF8700"/>
        <path d="m368 144h32v32h-32zm0 0" data-original="#000000" class="active-path" data-old_color="#000000"
              fill="#FF8700"/>
    </g>
</svg>
