<?xml version="1.0"?>
<svg xmlns="http://www.w3.org/2000/svg" height="512px" viewBox="0 0 256 256" width="512px" class="hovered-paths"><g><g><path d="m122.513 110.676a2.5 2.5 0 0 1 -2.334-1.6l-10.154-26.434a2.5 2.5 0 1 1 4.667-1.793l7.821 20.356 7.82-20.356a2.5 2.5 0 0 1 4.667 1.793l-10.155 26.431a2.5 2.5 0 0 1 -2.332 1.603z" fill="#FF8700" data-original="#FF8700" class="active-path" data-old_color="#ebe7f2"/><path d="m68.811 108.5a2.5 2.5 0 0 1 -2.5-2.5v-19.629a2.5 2.5 0 0 1 5 0v19.629a2.5 2.5 0 0 1 -2.5 2.5z" fill="#FF8700" data-original="#FF8700" class="active-path" data-old_color="#ebe7f2"/><path d="m83.528 141.042h-29.435a2.5 2.5 0 1 1 0-5h29.435a2.5 2.5 0 0 1 0 5z" fill="#FF8700" data-original="#FF8700" class="active-path" data-old_color="#ebe7f2"/><path d="m138.865 142.213h-32.705a2.5 2.5 0 0 1 0-5h32.705a2.5 2.5 0 0 1 0 5z" fill="#FF8700" data-original="#FF8700" class="active-path" data-old_color="#ebe7f2"/><path d="m199.24 143.515h-36.34a2.5 2.5 0 1 1 0-5h36.34a2.5 2.5 0 0 1 0 5z" fill="#FF8700" data-original="#FF8700" class="active-path" data-old_color="#ebe7f2"/><g fill="#846f75"><path d="m181.07 70.832a20.67 20.67 0 1 0 -20.67-20.67 20.693 20.693 0 0 0 20.67 20.67zm0-36.34a15.67 15.67 0 1 1 -15.67 15.67 15.687 15.687 0 0 1 15.67-15.67z" data-original="#FF8700" class="active-path" data-old_color="#FF8700" fill="#FF8700"/><path d="m207.17 74.105h-52.2a8.616 8.616 0 0 0 -8.606 8.6v58.3a2.5 2.5 0 0 0 2.5 2.5h11.536v80.493a2.5 2.5 0 0 0 2.5 2.5h36.34a2.5 2.5 0 0 0 2.5-2.5v-80.483h11.535a2.5 2.5 0 0 0 2.5-2.5v-58.305a8.615 8.615 0 0 0 -8.605-8.605zm3.605 64.41h-11.535a2.5 2.5 0 0 0 -2.5 2.5v80.493h-31.34v-80.493a2.5 2.5 0 0 0 -2.5-2.5h-11.535v-55.805a3.61 3.61 0 0 1 3.606-3.6h52.2a3.609 3.609 0 0 1 3.605 3.6z" data-original="#FF8700" class="active-path" data-old_color="#FF8700" fill="#FF8700"/><path d="m122.513 39.093a18.853 18.853 0 1 0 18.852 18.853 18.874 18.874 0 0 0 -18.852-18.853zm0 32.705a13.853 13.853 0 1 1 13.852-13.852 13.868 13.868 0 0 1 -13.852 13.854z" data-original="#FF8700" class="active-path" data-old_color="#FF8700" fill="#FF8700"/><path d="m99.023 84.245h39.842a2.5 2.5 0 0 0 0-5h-39.842a8 8 0 0 0 -7.995 7.994v52.474a2.5 2.5 0 0 0 2.5 2.5h10.132v72.194a2.5 2.5 0 0 0 2.5 2.5h32.705a2.5 2.5 0 0 0 2.5-2.5v-74.694a2.5 2.5 0 1 0 -5 0v72.194h-27.705v-72.194a2.5 2.5 0 0 0 -2.5-2.5h-10.132v-49.974a3 3 0 0 1 2.995-2.994z" data-original="#FF8700" class="active-path" data-old_color="#FF8700" fill="#FF8700"/><path d="m68.811 47.733a17.218 17.218 0 1 0 17.217 17.218 17.237 17.237 0 0 0 -17.217-17.218zm0 29.436a12.218 12.218 0 1 1 12.217-12.218 12.232 12.232 0 0 1 -12.217 12.218z" data-original="#FF8700" class="active-path" data-old_color="#FF8700" fill="#FF8700"/><path d="m47.67 88.871h35.858a2.5 2.5 0 0 0 0-5h-35.858a7.452 7.452 0 0 0 -7.445 7.444v47.227a2.5 2.5 0 0 0 2.5 2.5h8.868v64.725a2.5 2.5 0 0 0 2.5 2.5h29.435a2.5 2.5 0 0 0 2.5-2.5v-67.225a2.5 2.5 0 0 0 -5 0v64.725h-24.435v-64.725a2.5 2.5 0 0 0 -2.5-2.5h-8.868v-44.727a2.447 2.447 0 0 1 2.445-2.444z" data-original="#FF8700" class="active-path" data-old_color="#FF8700" fill="#FF8700"/></g><path d="m176.645 126.179a6.257 6.257 0 0 1 -4.453-1.844l-9.854-9.853a6.3 6.3 0 0 1 8.905-8.907l5.4 5.4 13.848-13.848a6.3 6.3 0 1 1 8.9 8.905l-18.3 18.3a6.258 6.258 0 0 1 -4.446 1.847zm-9.854-17.446a1.3 1.3 0 0 0 -.918 2.213l9.855 9.853a1.328 1.328 0 0 0 1.834 0l18.3-18.3a1.3 1.3 0 0 0 0-1.835 1.329 1.329 0 0 0 -1.833 0l-15.617 15.616a2.5 2.5 0 0 1 -3.535 0l-7.169-7.169a1.3 1.3 0 0 0 -.917-.378z" fill="#FF8700" data-original="#FF8700" class="active-path" data-old_color="#ed9abc"/></g></g> </svg>
