<?xml version="1.0" encoding="iso-8859-1"?>
<!-- Generator: Adobe Illustrator 19.0.0, SVG Export Plug-In . SVG Version: 6.00 Build 0)  -->
<svg xmlns="http://www.w3.org/2000/svg" version="1.1" id="Layer_1" x="0px"
     y="0px" viewBox="0 0 512 512" style="enable-background:new 0 0 512 512;" xml:space="preserve" width="512px"
     height="512px">
<g>
	<g>
		<g>
			<path d="M85.57,141.808c4.173,87.219,32.546,237.124,170.436,309.393c137.882-72.269,166.255-222.174,170.428-309.393     L256.006,60.647L85.57,141.808z"
                  fill="#FF8700"/>
            <path d="M473.028,103.245L259.695,0.845c-2.33-1.126-5.052-1.126-7.381,0L38.98,103.245c-2.961,1.417-4.847,4.403-4.847,7.689     c0,192.725,79.607,338.637,218.402,400.324c1.101,0.495,2.287,0.742,3.465,0.742c1.186,0,2.364-0.247,3.473-0.742     c138.795-61.687,218.394-207.599,218.394-400.324C477.867,107.648,475.989,104.661,473.028,103.245z M259.857,468.412     c-1.212,0.614-2.534,0.922-3.857,0.922c-1.314,0-2.637-0.307-3.849-0.922C100.087,391.441,71.68,227.644,68.275,136.858     c-0.128-3.405,1.783-6.562,4.864-8.03l179.2-85.333c2.313-1.109,5.018-1.109,7.33,0l179.2,85.333     c3.081,1.468,4.983,4.625,4.864,8.03C440.329,227.644,411.913,391.441,259.857,468.412z"
                  fill="#FF8700"/>
		</g>
	</g>
</g>
    <g>
</g>
    <g>
</g>
    <g>
</g>
    <g>
</g>
    <g>
</g>
    <g>
</g>
    <g>
</g>
    <g>
</g>
    <g>
</g>
    <g>
</g>
    <g>
</g>
    <g>
</g>
    <g>
</g>
    <g>
</g>
    <g>
</g>
</svg>
