<?xml version="1.0"?>
<svg xmlns="http://www.w3.org/2000/svg"
     version="1.1" width="512" height="512" x="0" y="0" viewBox="0 0 360 360" style="enable-background:new 0 0 512 512"
     xml:space="preserve" class=""><g><g xmlns="http://www.w3.org/2000/svg"><path d="m0 16.5h360v45h-360z" fill="#ff8700" data-original="#000000" style="" class=""/><path
        d="m0 268.5h360v-177h-360zm188.05-147c11.72 0 23.03 3.46 32.72 10l-16.8 24.86c-4.7-3.18-10.21-4.86-15.92-4.86-15.72 0-28.5 12.79-28.5 28.5s12.78 28.5 28.5 28.5c5.61 0 10.29-1.63 13.9-4.84.7-.63 1.38-1.33 2.01-2.08l22.98 19.28c-1.56 1.86-3.25 3.61-5.04 5.2-9.14 8.14-20.84 12.44-33.85 12.44-32.26 0-58.5-26.24-58.5-58.5s26.24-58.5 58.5-58.5z"
        fill="#ff8700" data-original="#000000" style="" class=""/><path d="m0 298.5h360v45h-360z" fill="#ff8700"
                                                                        data-original="#000000" style="" class=""/></g></g></svg>
