<?xml version="1.0"?>
<svg xmlns="http://www.w3.org/2000/svg" version="1.1" id="Capa_1" x="0px"
     y="0px" viewBox="0 0 512.001 512.001" style="enable-background:new 0 0 512.001 512.001;" xml:space="preserve"
     width="512px" height="512px" class=""><g><g>
	<g>
		<path d="M506.873,494.015c-5.784-28.483-24.167-51.917-48.585-64.992c11.341-11.43,18.36-27.153,18.36-44.489    c0-34.848-28.352-63.199-63.2-63.199c-34.848,0-63.199,28.351-63.199,63.199c0,17.336,7.02,33.06,18.361,44.488    c-13.52,7.24-25.184,17.649-33.885,30.341c-8.703-12.691-20.367-23.101-33.885-30.34c11.342-11.43,18.361-27.153,18.361-44.489    c0-34.848-28.352-63.199-63.2-63.199s-63.2,28.351-63.2,63.199c0,17.336,7.02,33.06,18.361,44.489    c-13.519,7.239-25.183,17.648-33.885,30.341c-8.702-12.692-20.366-23.102-33.885-30.341c11.342-11.43,18.361-27.153,18.361-44.489    c0-34.848-28.352-63.199-63.2-63.199c-34.849,0-63.2,28.351-63.2,63.199c0,17.336,7.02,33.06,18.361,44.489    c-24.419,13.076-42.801,36.509-48.585,64.992c-0.896,4.411,0.237,8.992,3.086,12.478c2.849,3.485,7.112,5.508,11.614,5.508    h157.447h157.447H492.17c4.502,0,8.766-2.022,11.614-5.508C506.636,503.007,507.769,498.426,506.873,494.015z"
              data-original="#FF8700" class="active-path" data-old_color=" rgb(255, 135, 0)" fill="#FF8700"/>
	</g>
</g><g>
	<g>
		<path d="M300.841,107.69c11.342-11.43,18.361-27.155,18.361-44.49c0-34.848-28.351-63.2-63.2-63.2s-63.2,28.352-63.2,63.2    c0,17.335,7.02,33.06,18.361,44.489c-10.865,5.818-20.531,13.691-28.428,23.143c30.8,1.789,57.638,18.594,73.267,43.192    c15.629-24.599,42.467-41.403,73.267-43.191C321.372,121.381,311.706,113.508,300.841,107.69z"
              data-original="#FF8700" class="active-path" data-old_color=" rgb(255, 135, 0)" fill="#FF8700"/>
	</g>
</g><g>
	<g>
		<path d="M379.563,268.356c11.342-11.43,18.361-27.154,18.361-44.489c0-34.849-28.352-63.2-63.199-63.2    c-34.848,0-63.2,28.352-63.2,63.2c0,17.335,7.021,33.06,18.36,44.489c-10.865,5.818-20.53,13.689-28.426,23.144    c30.801,1.788,57.636,18.593,73.266,43.191c15.629-24.6,42.467-41.404,73.268-43.191    C400.096,282.048,390.429,274.175,379.563,268.356z"
              data-original="#FF8700" class="active-path" data-old_color=" rgb(255, 135, 0)" fill="#FF8700"/>
	</g>
</g><g>
	<g>
		<path d="M222.117,268.356c11.341-11.43,18.361-27.154,18.361-44.489c0-34.849-28.352-63.2-63.2-63.2    c-34.849,0-63.2,28.352-63.2,63.2c0,17.335,7.021,33.06,18.36,44.489c-10.865,5.818-20.53,13.691-28.428,23.144    c30.802,1.788,57.638,18.592,73.268,43.191c15.63-24.599,42.465-41.402,73.264-43.19    C242.649,282.046,232.983,274.175,222.117,268.356z"
              data-original="#FF8700" class="active-path" data-old_color=" rgb(255, 135, 0)" fill="#FF8700"/>
	</g>
</g></g> </svg>
