<?xml version="1.0"?>
<svg xmlns="http://www.w3.org/2000/svg" xmlns:xlink="http://www.w3.org/1999/xlink" version="1.1" id="Capa_1" x="0px" y="0px" viewBox="0 0 512 512" style="enable-background:new 0 0 512 512;" xml:space="preserve" width="512px" height="512px"><g><g>
	<g>
		<g>
			<path d="M394.667,277.333c-64.698,0-117.333,52.635-117.333,117.333S329.969,512,394.667,512S512,459.365,512,394.667     S459.365,277.333,394.667,277.333z M330.677,405.333l-0.003-0.001l-0.008,0.001c-5.896,0-10.667-4.771-10.667-10.667     C320,353.5,353.5,320,394.667,320c24.844,0,47.99,12.302,61.906,32.917c3.302,4.875,2.021,11.51-2.865,14.802     c-4.865,3.313-11.521,2.01-14.802-2.865c-9.958-14.729-26.49-23.521-44.24-23.521c-15.227,0-28.893,6.494-38.621,16.762     l11.392,5.697c3.396,1.698,5.635,5.083,5.875,8.875c0.24,3.802-1.563,7.438-4.729,9.542l-32,21.333     c-0.195,0.129-0.431,0.077-0.63,0.191c-1.572,0.921-3.301,1.587-5.255,1.594C330.698,405.327,330.684,405.333,330.677,405.333z      M394.667,469.333c-24.844,0-47.99-12.302-61.906-32.917c-3.302-4.875-2.021-11.51,2.865-14.802     c4.854-3.302,11.51-2.021,14.802,2.865c9.958,14.729,26.49,23.521,44.24,23.521c13.592,0,25.879-5.267,35.309-13.669     c-0.055-0.052-0.129-0.068-0.184-0.122l-10.667-10.667c-2.26-2.26-3.385-5.417-3.073-8.594s2.042-6.052,4.698-7.823l32-21.333     c0.277-0.185,0.34-0.034,0.574-0.154c1.594-0.948,3.352-1.638,5.342-1.638c5.896,0,10.667,4.771,10.667,10.667     C469.333,435.833,435.833,469.333,394.667,469.333z" data-original="#000000" class="active-path" data-old_color="#000000" fill="#FF8700"/>
			<path d="M163.885,43.198c2-2,3.125-4.719,3.125-7.542c0-2.833-1.125-5.542-3.125-7.542C145.74,9.979,121.635,0,96,0     C43.063,0,0,43.063,0,96c0,25.635,9.979,49.74,28.115,67.885c2,2,4.708,3.125,7.542,3.125s5.542-1.125,7.542-3.125     L163.885,43.198z" data-original="#000000" class="active-path" data-old_color="#000000" fill="#FF8700"/>
			<path d="M426.135,163.885c2,2,4.719,3.125,7.542,3.125c2.833,0,5.542-1.125,7.542-3.125     c18.135-18.146,28.115-42.25,28.115-67.885c0-52.938-43.063-96-96-96c-25.635,0-49.74,9.979-67.885,28.115     c-2,2-3.125,4.708-3.125,7.542c0,2.823,1.125,5.542,3.125,7.542L426.135,163.885z" data-original="#000000" class="active-path" data-old_color="#000000" fill="#FF8700"/>
			<path d="M239.865,276.281c-1.707,0.441-3.355,1.052-5.198,1.052c-11.76,0-21.333-9.573-21.333-21.333     c0-7.792,4.409-14.329,10.667-18.053v-99.28c0-5.896,4.771-10.667,10.667-10.667c5.896,0,10.667,4.771,10.667,10.667v99.28     C251.591,241.671,256,248.208,256,256c0,1.842-0.611,3.491-1.052,5.198l31.208,31.208c4.042,4.063,10.563,4.177,14.76,0.313     c25.74-23.677,59.031-36.719,93.75-36.719c5.833,0,11.99,0.479,19.396,1.521c3.115,0.448,6.333-0.552,8.677-2.688     c2.344-2.146,3.615-5.229,3.458-8.406C421.135,144.135,337.01,64,234.667,64c-105.865,0-192,86.135-192,192     c0,47.589,17.506,91.098,46.285,124.681l-24.421,74.673c-1.542,4.688,0.344,9.823,4.552,12.406     c1.729,1.052,3.656,1.573,5.583,1.573c2.75,0,5.49-1.063,7.542-3.125l48.829-48.829C160.969,436.668,196.49,448,234.667,448     c5.99,0,11.885-0.344,17.719-0.896c3.167-0.292,6.042-1.99,7.823-4.625c1.792-2.635,2.313-5.927,1.417-8.979     c-3.729-12.792-5.625-25.854-5.625-38.833c0-24.896,6.833-49.479,19.771-71.073c2.51-4.198,1.844-9.563-1.615-13.021     L239.865,276.281z" data-original="#000000" class="active-path" data-old_color="#000000" fill="#FF8700"/>
		</g>
	</g>
</g></g> </svg>
