<?xml version="1.0" encoding="UTF-8"?>
<!DOCTYPE svg PUBLIC "-//W3C//DTD SVG 1.1//EN" "http://www.w3.org/Graphics/SVG/1.1/DTD/svg11.dtd">
<svg xmlns="http://www.w3.org/2000/svg" version="1.1" width="512px" height="512px" style="shape-rendering:geometricPrecision; text-rendering:geometricPrecision; image-rendering:optimizeQuality; fill-rule:evenodd; clip-rule:evenodd" xmlns:xlink="http://www.w3.org/1999/xlink">
<g><path style="opacity:0.998" fill="#ff8700" d="M 401.5,225.5 C 347.25,278.249 293.417,331.583 240,385.5C 239.536,386.094 239.369,386.761 239.5,387.5C 214.21,408.802 187.21,410.968 158.5,394C 115.361,351.861 72.5276,309.361 30,266.5C 24.6715,260.333 20.8382,253.333 18.5,245.5C 19.7152,244.221 19.3818,243.221 17.5,242.5C 10.9718,214.082 18.9718,190.749 41.5,172.5C 60.9669,154.543 80.3002,135.709 99.5,116C 99.2716,115.601 98.9382,115.435 98.5,115.5C 115.167,98.1667 132.167,81.1667 149.5,64.5C 157.499,58.1825 165.166,50.8491 172.5,42.5C 180.556,35.4454 187.89,27.7787 194.5,19.5C 204.02,11.067 214.02,10.567 224.5,18C 284,77.5 343.5,137 403,196.5C 409.385,206.618 408.885,216.285 401.5,225.5 Z M 282.5,137.5 C 306.298,161.799 330.298,185.965 354.5,210C 353.619,210.708 352.953,211.542 352.5,212.5C 256.498,212.833 160.498,212.5 64.5,211.5C 112.82,162.68 161.32,114.014 210,65.5C 234.035,89.7016 258.201,113.702 282.5,137.5 Z"/></g>
<g><path style="opacity:0.835" fill="#ffba00" d="M 194.5,19.5 C 187.89,27.7787 180.556,35.4454 172.5,42.5C 172.167,42.5 171.833,42.5 171.5,42.5C 178.833,34.5 186.5,26.8333 194.5,19.5 Z"/></g>
<g><path style="opacity:0.839" fill="#ff62fe" d="M 171.5,42.5 C 171.833,42.5 172.167,42.5 172.5,42.5C 165.166,50.8491 157.499,58.1825 149.5,64.5C 156.5,56.8333 163.833,49.5 171.5,42.5 Z"/></g>
<g><path style="opacity:0.996" fill="#fe3900" d="M 282.5,137.5 C 307.082,160.581 331.249,184.247 355,208.5C 355.722,210.661 355.055,212.328 353,213.5C 352.601,213.272 352.435,212.938 352.5,212.5C 352.953,211.542 353.619,210.708 354.5,210C 330.298,185.965 306.298,161.799 282.5,137.5 Z"/></g>
<g><path style="opacity:0.863" fill="#ffccfd" d="M 98.5,115.5 C 98.9382,115.435 99.2716,115.601 99.5,116C 80.3002,135.709 60.9669,154.543 41.5,172.5C 60.1667,153.167 79.1667,134.167 98.5,115.5 Z"/></g>
<g><path style="opacity:0.039" fill="#ffec00" d="M 17.5,242.5 C 19.3818,243.221 19.7152,244.221 18.5,245.5C 17.8902,244.609 17.5569,243.609 17.5,242.5 Z"/></g>
<g><path style="opacity:0.999" fill="#ff8700" d="M 425.5,258.5 C 425.369,259.239 425.536,259.906 426,260.5C 426.69,261.738 427.19,261.738 427.5,260.5C 441.131,279.416 452.464,299.75 461.5,321.5C 461.386,324.216 462.386,326.216 464.5,327.5C 474.169,353.323 468.835,375.49 448.5,394C 426.5,409.333 404.5,409.333 382.5,394C 367.538,380.904 360.704,364.404 362,344.5C 369.577,317.353 381.41,292.353 397.5,269.5C 397.435,269.938 397.601,270.272 398,270.5C 398.374,269.584 398.874,268.75 399.5,268C 399.272,267.601 398.938,267.435 398.5,267.5C 404.49,255.503 413.49,252.503 425.5,258.5 Z"/></g>
<g><path style="opacity:0.482" fill="#fefd00" d="M 425.5,258.5 C 426.5,258.833 427.167,259.5 427.5,260.5C 427.19,261.738 426.69,261.738 426,260.5C 425.536,259.906 425.369,259.239 425.5,258.5 Z"/></g>
<g><path style="opacity:0.443" fill="#ffea00" d="M 398.5,267.5 C 398.938,267.435 399.272,267.601 399.5,268C 398.874,268.75 398.374,269.584 398,270.5C 397.601,270.272 397.435,269.938 397.5,269.5C 397.328,268.508 397.662,267.842 398.5,267.5 Z"/></g>
<g><path style="opacity:0.298" fill="#ffca00" d="M 461.5,321.5 C 462.87,323.25 463.87,325.25 464.5,327.5C 462.386,326.216 461.386,324.216 461.5,321.5 Z"/></g>
<g><path style="opacity:0.016" fill="#ffec00" d="M 401.5,225.5 C 347.833,279.833 293.833,333.833 239.5,387.5C 239.369,386.761 239.536,386.094 240,385.5C 293.417,331.583 347.25,278.249 401.5,225.5 Z"/></g>
<g><path style="opacity:0.972" fill="#fe8700" d="M 59.5,425.5 C 190.167,425.333 320.834,425.5 451.5,426C 466.198,430.553 471.698,440.386 468,455.5C 464.605,462.561 459.105,467.061 451.5,469C 320.833,469.667 190.167,469.667 59.5,469C 44.8025,464.447 39.3025,454.614 43,439.5C 46.2825,432.124 51.7825,427.457 59.5,425.5 Z"/></g>
</svg>
