<?xml version="1.0"?>
<svg xmlns="http://www.w3.org/2000/svg" version="1.1" id="Capa_1" x="0px"
     y="0px" width="512px" height="512px" viewBox="0 0 46.115 46.115" style="enable-background:new 0 0 46.115 46.115;"
     xml:space="preserve" class=""><g><g>
	<g>
		<path d="M38.416,2.508H7.699C3.447,2.508,0,5.955,0,10.207v25.701c0,4.252,3.447,7.699,7.699,7.699h30.717    c4.252,0,7.699-3.447,7.699-7.699V10.207C46.115,5.955,42.668,2.508,38.416,2.508z M38.448,6.403c1.104,0,2,0.896,2,2.001    c0,1.104-0.896,2-2,2c-1.104,0-2-0.896-2-2S37.344,6.403,38.448,6.403z M42.188,35.859c0,2.08-1.723,3.758-3.804,3.758H7.671    c-2.081,0-3.803-1.678-3.803-3.758V17.044c0-1.819,1.475-3.294,3.294-3.294h31.73c1.818,0,3.293,1.475,3.293,3.294v18.815H42.188z    "
              data-original="#FF8700" class="active-path" data-old_color=" rgb(255, 135, 0)" fill="#FF8700"/>
        <path d="M15.17,17.407c0-0.918-0.744-1.662-1.662-1.662H9.035c-0.918,0-1.662,0.744-1.662,1.662v17.287    c0,0.918,0.744,1.662,1.662,1.662h4.473c0.918,0,1.662-0.744,1.662-1.662V17.407z"
              data-original="#FF8700" class="active-path" data-old_color=" rgb(255, 135, 0)" fill="#FF8700"/>
        <path d="M38.741,17.407c0-0.918-0.744-1.662-1.662-1.662H18.827c-0.918,0-1.662,0.744-1.662,1.662v1.571    c0,0.918,0.744,1.662,1.662,1.662h18.252c0.918,0,1.662-0.744,1.662-1.662V17.407z"
              data-original="#FF8700" class="active-path" data-old_color=" rgb(255, 135, 0)" fill="#FF8700"/>
        <path d="M26.654,27.682c0-0.918-0.744-1.662-1.662-1.662h-6.165c-0.918,0-1.662,0.744-1.662,1.662v7.01    c0,0.918,0.744,1.662,1.662,1.662h6.165c0.918,0,1.662-0.744,1.662-1.662V27.682z"
              data-original="#FF8700" class="active-path" data-old_color=" rgb(255, 135, 0)" fill="#FF8700"/>
        <path d="M28.891,34.691c0,0.918,0.743,1.662,1.661,1.662h6.164c0.918,0,1.662-0.744,1.662-1.662v-7.01    c0-0.918-0.744-1.662-1.662-1.662h-6.164c-0.918,0-1.661,0.744-1.661,1.662V34.691z"
              data-original="#FF8700" class="active-path" data-old_color=" rgb(255, 135, 0)" fill="#FF8700"/>
        <path d="M38.741,23.238c0-0.668-0.541-1.208-1.209-1.208H18.374c-0.668,0-1.209,0.541-1.209,1.208s0.541,1.209,1.209,1.209h19.159    C38.2,24.447,38.741,23.906,38.741,23.238z"
              data-original="#FF8700" class="active-path" data-old_color=" rgb(255, 135, 0)" fill="#FF8700"/>
	</g>
</g></g> </svg>
